<svg width="16" height="8" viewBox="0 0 16 8" fill="none" xmlns="http://www.w3.org/2000/svg">
<path fill-rule="evenodd" clip-rule="evenodd" d="M8.3147 7.87243L15.8634 0.730204C15.9063 0.692445 15.9408 0.646025 15.9643 0.593993C15.9879 0.541961 16 0.485521 16 0.428433C16 0.371345 15.9879 0.314905 15.9643 0.262873C15.9408 0.210841 15.9063 0.164391 15.8634 0.126631C15.7776 0.0457752 15.6641 0.000764573 15.546 0.000764573C15.428 0.000764573 15.3143 0.0457752 15.2285 0.126631L8.00234 6.96708L0.776059 0.126631C0.688312 0.0455372 0.573188 0.000488281 0.453603 0.000488281C0.334019 0.000488281 0.218771 0.0455372 0.131025 0.126631C0.0896485 0.165303 0.0567505 0.212069 0.0342017 0.263978C0.0116529 0.315888 0 0.371854 0 0.428433C0 0.485011 0.0116529 0.540978 0.0342017 0.592888C0.0567505 0.644797 0.0896485 0.691532 0.131025 0.730204L7.67976 7.87746C7.76637 7.95742 7.88031 8.00141 7.99828 8.00047C8.11625 7.99954 8.22938 7.95374 8.3147 7.87243Z" fill="#0082C8"/>
</svg>
