<svg width="8" height="16" viewBox="0 0 8 16" fill="none" xmlns="http://www.w3.org/2000/svg">
<path fill-rule="evenodd" clip-rule="evenodd" d="M7.87194 7.68529L0.729715 0.13656C0.691956 0.0936641 0.645536 0.0592107 0.593504 0.0356779C0.541472 0.012146 0.485032 -2.12014e-08 0.427944 -1.87061e-08C0.370856 -1.62107e-08 0.314416 0.012146 0.262384 0.0356779C0.210352 0.0592108 0.163902 0.0936642 0.126142 0.13656C0.0452863 0.222416 0.000275607 0.335932 0.000275612 0.453972C0.000275617 0.572012 0.0452863 0.685651 0.126142 0.771506L6.96659 7.99766L0.126142 15.2239C0.0450489 15.3117 -2.50549e-08 15.4268 -1.98276e-08 15.5464C-1.46005e-08 15.666 0.0450489 15.7812 0.126142 15.869C0.164815 15.9104 0.211581 15.9432 0.26349 15.9658C0.315399 15.9883 0.371366 16 0.427945 16C0.484523 16 0.54049 15.9883 0.592399 15.9658C0.644309 15.9432 0.691043 15.9104 0.729716 15.869L7.87697 8.32024C7.95693 8.23363 8.00092 8.11969 7.99999 8.00172C7.99905 7.88375 7.95325 7.77062 7.87194 7.68529Z" fill="#818181"/>
</svg>
